<svg xmlns="http://www.w3.org/2000/svg" width="16.062" height="19.769" viewBox="0 0 16.062 19.769">
  <path id="Path_53265" data-name="Path 53265" d="M62.518,2.471h-3.4V1.853A1.853,1.853,0,0,0,57.267,0H54.8a1.853,1.853,0,0,0-1.853,1.853v.618h-3.4A1.544,1.544,0,0,0,48,4.016V5.251a.618.618,0,0,0,.618.618H63.445a.618.618,0,0,0,.618-.618V4.016A1.544,1.544,0,0,0,62.518,2.471Zm-8.34-.618a.619.619,0,0,1,.618-.618h2.471a.619.619,0,0,1,.618.618v.618H54.178ZM49.172,7.1a.193.193,0,0,0-.193.2l.51,10.7a1.851,1.851,0,0,0,1.851,1.765h9.382A1.851,1.851,0,0,0,62.573,18l.51-10.7a.193.193,0,0,0-.193-.2ZM58.5,8.649a.618.618,0,1,1,1.236,0V16.68a.618.618,0,1,1-1.236,0Zm-3.089,0a.618.618,0,0,1,1.236,0V16.68a.618.618,0,0,1-1.236,0Zm-3.089,0a.618.618,0,0,1,1.236,0V16.68a.618.618,0,0,1-1.236,0Z" transform="translate(-48)" fill="#54586e"/>
</svg>
