<svg xmlns="http://www.w3.org/2000/svg" width="19.769" height="19.769" viewBox="0 0 19.769 19.769">
  <g id="Group_43284" data-name="Group 43284" transform="translate(0 0)">
    <path id="Path_53261" data-name="Path 53261" d="M11.3,91.4a1.747,1.747,0,0,1-.679.42l-2.457.819a1.733,1.733,0,0,1-.549.089h0a1.738,1.738,0,0,1-1.648-2.287l.819-2.457a1.746,1.746,0,0,1,.42-.679L12.508,82H2.124A2.126,2.126,0,0,0,0,84.124V96.479A2.126,2.126,0,0,0,2.124,98.6H14.479A2.126,2.126,0,0,0,16.6,96.479V86.1Z" transform="translate(0 -78.834)" fill="#0c51b0"/>
    <path id="Path_53262" data-name="Path 53262" d="M183.075,9.292a.579.579,0,0,0-.14.226l-.819,2.457a.579.579,0,0,0,.733.733l2.457-.819a.579.579,0,0,0,.226-.14l7.235-7.235L190.31,2.057ZM193.45.282a.965.965,0,0,0-1.365,0l-.956.956L193.586,3.7l.956-.956a.965.965,0,0,0,0-1.365Z" transform="translate(-175.056)" fill="#0c51b0"/>
  </g>
</svg>
