<svg xmlns="http://www.w3.org/2000/svg" width="19.449" height="18.372" viewBox="0 0 19.449 18.372">
  <g id="filter" transform="translate(-5.004 -8)">
    <path id="Path_53249" data-name="Path 53249" d="M12.928,26.372a.72.72,0,0,1-.72-.72V18.724L5.529,11.379A2.021,2.021,0,0,1,7.024,8h15.41a2.021,2.021,0,0,1,1.495,3.379L17.25,18.724v4.045a.72.72,0,0,1-.27.562l-3.6,2.882A.72.72,0,0,1,12.928,26.372ZM7.024,9.441a.58.58,0,0,0-.429.969l6.866,7.565a.72.72,0,0,1,.187.472v5.706l2.161-1.743V18.447A.72.72,0,0,1,16,17.96L22.863,10.4a.58.58,0,0,0-.429-.955Z" fill="#0c51b0"/>
  </g>
</svg>
